<?xml version="1.0" encoding="UTF-8"?>
<svg version="1.1" xmlns="http://www.w3.org/2000/svg" width="512" height="512">
<path d="M0 0 C11.23054462 3.32392652 20.11307378 16.53735979 25.57177734 26.34716797 C28.90525144 32.59684142 31.8437348 38.98672252 34.23046875 45.66015625 C34.81441406 45.00660156 34.81441406 45.00660156 35.41015625 44.33984375 C40.13446823 39.31073744 45.15904666 35.89824803 51.23046875 32.66015625 C51.92785156 32.27859375 52.62523437 31.89703125 53.34375 31.50390625 C76.07274197 20.20361646 103.78013333 25.74382484 126.75390625 33.109375 C139.78509738 37.4920992 139.78509738 37.4920992 143.23046875 42.66015625 C146.77131245 62.04161653 133.86062941 88.08686925 123.23046875 103.66015625 C119.89299625 107.98968917 116.13863361 111.84804459 112.23046875 115.66015625 C111.35841797 116.56314453 111.35841797 116.56314453 110.46875 117.484375 C102.51211095 125.12034346 90.81610557 129.43253907 80.23046875 131.66015625 C79.19921875 131.88703125 78.16796875 132.11390625 77.10546875 132.34765625 C73.1413027 132.77854386 69.21349865 132.73981685 65.23046875 132.66015625 C65.71515625 133.41296875 66.19984375 134.16578125 66.69921875 134.94140625 C100.15152967 187.95045278 110.0225696 258.9335075 96.45898438 319.87744141 C89.31115922 349.93354282 75.60582266 377.39014874 55.23046875 400.66015625 C54.57304687 401.42714844 53.915625 402.19414062 53.23828125 402.984375 C42.52547408 415.21314545 31.0592542 426.70466471 17.96923828 436.37011719 C16.2055926 437.67861252 14.46545284 439.01430076 12.7265625 440.35546875 C-4.13243707 453.21725761 -22.82337612 463.24433265 -41.76953125 472.66015625 C-43.06286377 473.30549316 -43.06286377 473.30549316 -44.38232422 473.96386719 C-90.39678518 496.63047918 -146.13917364 512.64524843 -197.50390625 512.86328125 C-199.15969696 512.87373474 -199.15969696 512.87373474 -200.84893799 512.88439941 C-204.40584139 512.90174621 -207.96258727 512.90812248 -211.51953125 512.91015625 C-213.33831787 512.91166687 -213.33831787 512.91166687 -215.19384766 512.91320801 C-233.5718353 512.90286963 -251.56970402 512.41378747 -269.76953125 509.66015625 C-270.76098145 509.51562012 -271.75243164 509.37108398 -272.77392578 509.22216797 C-303.62218346 504.5910829 -337.32154535 495.25080407 -357.08203125 469.28515625 C-366.61898878 455.46041338 -369.3584773 441.21202674 -369.20703125 424.66015625 C-369.2033252 423.93438385 -369.19961914 423.20861145 -369.19580078 422.46084595 C-368.97884854 392.5522543 -358.1913531 369.75164063 -344.35400391 343.66210938 C-341.36857175 338.00588845 -338.50625415 332.29189494 -335.69824219 326.54589844 C-334.72938996 324.5786496 -333.73764312 322.6238632 -332.74609375 320.66796875 C-316.85209401 288.79991707 -306.78535949 254.1695692 -296.31390381 220.25180054 C-279.06022445 164.37307861 -260.5711707 106.99225972 -205.76953125 77.66015625 C-181.43100195 65.46299324 -152.82295928 60.18423735 -125.76953125 59.66015625 C-124.84865723 59.63969238 -123.9277832 59.61922852 -122.97900391 59.59814453 C-75.8317264 58.70746216 -28.90640212 64.37232584 13.23046875 86.66015625 C18.05323506 66.42176192 17.38769978 48.8114724 6.23046875 30.66015625 C1.66573584 24.55408495 -3.82189599 19.38776377 -9.76953125 14.66015625 C-11.33888719 11.52144437 -11.12154228 9.12159803 -10.76953125 5.66015625 C-7.94190096 1.50707427 -5.18279753 -0.37922909 0 0 Z " fill="#FE9701" transform="translate(368.76953125,-0.66015625)"/>
<path d="M0 0 C11.23054462 3.32392652 20.11307378 16.53735979 25.57177734 26.34716797 C28.90525144 32.59684142 31.8437348 38.98672252 34.23046875 45.66015625 C34.81441406 45.00660156 34.81441406 45.00660156 35.41015625 44.33984375 C40.13446823 39.31073744 45.15904666 35.89824803 51.23046875 32.66015625 C51.92785156 32.27859375 52.62523437 31.89703125 53.34375 31.50390625 C76.07274197 20.20361646 103.78013333 25.74382484 126.75390625 33.109375 C139.78509738 37.4920992 139.78509738 37.4920992 143.23046875 42.66015625 C146.77131245 62.04161653 133.86062941 88.08686925 123.23046875 103.66015625 C119.89299625 107.98968917 116.13863361 111.84804459 112.23046875 115.66015625 C111.35841797 116.56314453 111.35841797 116.56314453 110.46875 117.484375 C102.51211095 125.12034346 90.81610557 129.43253907 80.23046875 131.66015625 C79.19921875 131.88703125 78.16796875 132.11390625 77.10546875 132.34765625 C73.1413027 132.77854386 69.21349865 132.73981685 65.23046875 132.66015625 C65.71515625 133.41296875 66.19984375 134.16578125 66.69921875 134.94140625 C100.15152967 187.95045278 110.0225696 258.9335075 96.45898438 319.87744141 C89.31115922 349.93354282 75.60582266 377.39014874 55.23046875 400.66015625 C54.57304687 401.42714844 53.915625 402.19414062 53.23828125 402.984375 C42.52547408 415.21314545 31.0592542 426.70466471 17.96923828 436.37011719 C16.2055926 437.67861252 14.46545284 439.01430076 12.7265625 440.35546875 C-4.13243707 453.21725761 -22.82337612 463.24433265 -41.76953125 472.66015625 C-43.06286377 473.30549316 -43.06286377 473.30549316 -44.38232422 473.96386719 C-90.39678518 496.63047918 -146.13917364 512.64524843 -197.50390625 512.86328125 C-199.15969696 512.87373474 -199.15969696 512.87373474 -200.84893799 512.88439941 C-204.40584139 512.90174621 -207.96258727 512.90812248 -211.51953125 512.91015625 C-213.33831787 512.91166687 -213.33831787 512.91166687 -215.19384766 512.91320801 C-233.5718353 512.90286963 -251.56970402 512.41378747 -269.76953125 509.66015625 C-270.76098145 509.51562012 -271.75243164 509.37108398 -272.77392578 509.22216797 C-303.62218346 504.5910829 -337.32154535 495.25080407 -357.08203125 469.28515625 C-366.61898878 455.46041338 -369.3584773 441.21202674 -369.20703125 424.66015625 C-369.2033252 423.93438385 -369.19961914 423.20861145 -369.19580078 422.46084595 C-368.97884854 392.5522543 -358.1913531 369.75164063 -344.35400391 343.66210938 C-341.36857175 338.00588845 -338.50625415 332.29189494 -335.69824219 326.54589844 C-334.72938996 324.5786496 -333.73764312 322.6238632 -332.74609375 320.66796875 C-316.85209401 288.79991707 -306.78535949 254.1695692 -296.31390381 220.25180054 C-279.06022445 164.37307861 -260.5711707 106.99225972 -205.76953125 77.66015625 C-181.43100195 65.46299324 -152.82295928 60.18423735 -125.76953125 59.66015625 C-124.84865723 59.63969238 -123.9277832 59.61922852 -122.97900391 59.59814453 C-75.8317264 58.70746216 -28.90640212 64.37232584 13.23046875 86.66015625 C18.05323506 66.42176192 17.38769978 48.8114724 6.23046875 30.66015625 C1.66573584 24.55408495 -3.82189599 19.38776377 -9.76953125 14.66015625 C-11.33888719 11.52144437 -11.12154228 9.12159803 -10.76953125 5.66015625 C-7.94190096 1.50707427 -5.18279753 -0.37922909 0 0 Z M-167.64453125 82.97265625 C-168.94028076 83.29012817 -168.94028076 83.29012817 -170.26220703 83.61401367 C-202.32984108 91.79004094 -228.482081 111.58623219 -245.76953125 139.66015625 C-263.49125684 169.62557243 -273.16381841 203.55972614 -283.31530762 236.64642334 C-296.03626509 278.08550879 -310.6591029 317.66299705 -330.68359375 356.24609375 C-331.01773788 356.88992508 -331.35188202 357.53375641 -331.69615173 358.19709778 C-333.32272673 361.32563619 -334.95764621 364.44940763 -336.60668945 367.56616211 C-341.73911663 377.3415893 -346.42860516 387.07774739 -349.01953125 397.84765625 C-349.3340625 399.11996094 -349.64859375 400.39226562 -349.97265625 401.703125 C-353.75667173 419.20693706 -354.11511081 438.62710126 -345.16015625 454.515625 C-343.49208352 457.04451507 -341.72708788 459.34966488 -339.76953125 461.66015625 C-339.18558594 462.35496094 -338.60164063 463.04976563 -338 463.765625 C-316.20932902 487.48305005 -277.11911017 492.24979151 -246.76953125 494.66015625 C-246.07520996 494.71800293 -245.38088867 494.77584961 -244.66552734 494.83544922 C-239.03754971 495.28245098 -233.41262178 495.5071809 -227.76953125 495.66015625 C-225.91231445 495.71115479 -225.91231445 495.71115479 -224.01757812 495.76318359 C-195.49811437 496.46629176 -168.34121288 493.68197756 -140.46630859 487.27050781 C-137.93373756 486.69732045 -135.39621446 486.16876898 -132.8515625 485.65234375 C-93.09645242 477.27487594 -51.96404512 460.3475397 -17.76953125 438.66015625 C-16.73570312 438.00917969 -15.701875 437.35820312 -14.63671875 436.6875 C9.63805659 420.92507921 32.00934386 402.02124078 49.23046875 378.66015625 C49.875 377.7990625 50.51953125 376.93796875 51.18359375 376.05078125 C70.82275187 348.98059033 83.26712804 315.39972625 83.43359375 281.828125 C83.4441832 280.41679794 83.4441832 280.41679794 83.45498657 278.97695923 C83.78112843 222.63899402 75.78173871 166.92486015 35.23046875 124.66015625 C5.65677438 94.95880565 -35.16856925 83.3893885 -75.76953125 78.66015625 C-76.58574951 78.56299316 -77.40196777 78.46583008 -78.24291992 78.36572266 C-88.14116153 77.3652108 -98.09065395 77.43830504 -108.02905273 77.41992188 C-111.16873261 77.41027394 -114.30774013 77.37919689 -117.44726562 77.34765625 C-134.47327718 77.25816815 -151.08659465 78.86360309 -167.64453125 82.97265625 Z " fill="#010000" transform="translate(368.76953125,-0.66015625)"/>
<path d="M0 0 C7.27818991 1.3212714 13.42099003 3.71383985 20.0625 6.9375 C21.57432861 7.66948608 21.57432861 7.66948608 23.11669922 8.41625977 C37.52527271 15.56319667 49.68029408 24.61920966 61 36 C61.88300781 36.88300781 62.76601563 37.76601562 63.67578125 38.67578125 C86.56257967 62.70158052 98.9246947 96.69597346 104 129 C104.13535156 129.80147461 104.27070313 130.60294922 104.41015625 131.42871094 C109.25649003 161.12887812 110.66074405 195.70308164 103 225 C102.80744629 225.74685059 102.61489258 226.49370117 102.41650391 227.26318359 C101.16720473 231.93579211 99.66174591 236.45821939 98 241 C97.57074219 242.20140625 97.14148438 243.4028125 96.69921875 244.640625 C79.48040228 290.23411085 42.93639253 327.20390567 0.90429688 350.92138672 C-1.08000838 352.04531756 -3.04756782 353.19554239 -5.015625 354.34765625 C-20.26879011 363.16047885 -36.39894692 371.07105247 -53 377 C-53 376.34 -53 375.68 -53 375 C-52.37770508 374.69932617 -51.75541016 374.39865234 -51.11425781 374.08886719 C-24.59200204 361.21219035 -0.13982531 346.57029093 22 327 C22.90363281 326.20722656 23.80726563 325.41445313 24.73828125 324.59765625 C33.67424599 316.66512306 41.61297783 308.40395656 49 299 C49.75539063 298.03835938 50.51078125 297.07671875 51.2890625 296.0859375 C67.24083772 275.31025775 78.71743764 251.42466239 85 226 C85.29849854 224.83500977 85.29849854 224.83500977 85.60302734 223.64648438 C92.76251241 194.30490923 91.19957245 159.57050714 86 130 C85.85014648 129.14599609 85.70029297 128.29199219 85.54589844 127.41210938 C84.53961819 121.89572804 83.31753473 116.44926707 82 111 C81.82243164 110.23171875 81.64486328 109.4634375 81.46191406 108.671875 C75.74123316 84.03521712 65.56704294 60.99688319 50 41 C49.57541504 40.4544043 49.15083008 39.90880859 48.71337891 39.34667969 C43.65411638 32.91947852 38.40290859 27.10708185 32 22 C30.99453125 21.15824219 29.9890625 20.31648438 28.953125 19.44921875 C21.47368077 13.28256381 13.75430964 8.3332677 5.203125 3.77734375 C2 2 2 2 0 0 Z " fill="#F27A00" transform="translate(345,90)"/>
<path d="M0 0 C-3.90645638 21.48551009 -13.29963651 42.54522635 -31 56 C-40.52082539 62.09258298 -50.71371482 63.4771704 -61.8125 63.3125 C-62.91787109 63.31572266 -64.02324219 63.31894531 -65.16210938 63.32226562 C-76.46131067 63.24716519 -76.46131067 63.24716519 -80.6328125 59.5546875 C-81.12523437 59.00039062 -81.61765625 58.44609375 -82.125 57.875 C-86.55411025 53.2101943 -91.73831196 49.66320053 -97 46 C-93.08073171 26.73026424 -86.54463884 11.19488945 -70.45703125 -0.9140625 C-49.81677908 -14.2367054 -21.48070521 -8.61270748 0 0 Z " fill="#5FA816" transform="translate(494,51)"/>
<path d="M0 0 C4.13209076 0.56346692 5.98115358 2.34245392 8.75 5.375 C9.25633501 8.47630196 8.94160492 10.53672848 8.25 13.5625 C4.29311093 18.34374096 -2.42565457 18.58800074 -8.1875 19.25 C-31.93175539 22.17092031 -55.3409198 32.96525696 -70.48388672 51.91943359 C-88.20953495 75.2981644 -97.26277695 105.26110713 -105.39135742 133.09790039 C-109.89860437 148.52867143 -109.89860437 148.52867143 -113.18359375 150.5859375 C-116.1683808 151.72568605 -118.07898488 151.89271675 -121.25 151.375 C-123.80831343 149.25214418 -124.96527562 148.29075759 -126.25 145.375 C-126.43812317 139.48966012 -124.68163129 133.6891894 -122.9140625 128.1328125 C-122.67915604 127.37515091 -122.44424957 126.61748932 -122.20222473 125.83686829 C-121.43750369 123.38760953 -120.65810281 120.94343954 -119.875 118.5 C-119.60744904 117.65929962 -119.33989807 116.81859924 -119.0642395 115.9524231 C-110.23535435 88.30711785 -100.26496771 59.77341392 -81.25 37.375 C-80.73179687 36.70726562 -80.21359375 36.03953125 -79.6796875 35.3515625 C-63.65081658 15.10938837 -35.51212003 4.13443881 -10.51220703 1.03564453 C-7.00699888 0.68353189 -3.4998576 0.40382972 0 0 Z " fill="#F5F3F0" transform="translate(230.25,94.625)"/>
<path d="M0 0 C1.73017508 0.45451184 3.45909877 0.91378857 5.1875 1.375 C6.63189453 1.75785156 6.63189453 1.75785156 8.10546875 2.1484375 C10.82210207 2.94766296 13.39137175 3.9031362 16 5 C12.09354362 26.48551009 2.70036349 47.54522635 -15 61 C-20.40594256 64.45938008 -28.8128996 68.77618018 -35.296875 67.57421875 C-35.85890625 67.38472656 -36.4209375 67.19523437 -37 67 C-36.030625 66.54625 -35.06125 66.0925 -34.0625 65.625 C-17.32548582 55.89261147 -8.45109245 32.79632399 -3.75 15.0625 C-3.1571145 12.71072083 -2.57267596 10.35678185 -2 8 C-1.58378346 6.35405278 -1.1672181 4.70819363 -0.75 3.0625 C-0.5025 2.051875 -0.255 1.04125 0 0 Z " fill="#529213" transform="translate(478,46)"/>
<path d="M0 0 C4.4297642 0.79102932 5.89210172 1.98974785 8.5 5.625 C9.2446324 9.59637281 8.87266878 11.06599683 6.625 14.4375 C4.14122682 16.99432533 3.18979545 17.51769849 -0.3125 18.0625 C-3.5 17.625 -3.5 17.625 -6.375 15 C-8.69483097 11.31556258 -9.40140975 9.86162583 -8.5 5.625 C-5.89210172 1.98974785 -4.4297642 0.79102932 0 0 Z " fill="#F5F2ED" transform="translate(264.5,93.375)"/>
<path d="M0 0 C-3.55778177 3.05345704 -7.43057431 4.53403364 -11.75 6.1875 C-12.44738281 6.46013672 -13.14476562 6.73277344 -13.86328125 7.01367188 C-15.57337254 7.68131025 -17.28640154 8.34141552 -19 9 C-19 8.34 -19 7.68 -19 7 C-16.40163864 5.63354299 -13.79734444 4.28169331 -11.1875 2.9375 C-10.44951172 2.54755859 -9.71152344 2.15761719 -8.95117188 1.75585938 C-8.23896484 1.39169922 -7.52675781 1.02753906 -6.79296875 0.65234375 C-6.1383667 0.31195068 -5.48376465 -0.02844238 -4.80932617 -0.37915039 C-3 -1 -3 -1 0 0 Z " fill="#E57600" transform="translate(311,458)"/>
</svg>
